<?xml version="1.0" encoding="UTF-8" standalone="no"?>
<!-- Created with Inkscape (http://www.inkscape.org/) -->

<svg
   width="210mm"
   height="297mm"
   viewBox="0 0 210 297"
   version="1.1"
   id="svg1"
   inkscape:version="1.4.3 (0d15f75, 2025-12-25)"
   sodipodi:docname="WignerRot.svg"
   inkscape:export-batch-name="batch"
   inkscape:export-batch-path="../Figuras"
   xmlns:inkscape="http://www.inkscape.org/namespaces/inkscape"
   xmlns:sodipodi="http://sodipodi.sourceforge.net/DTD/sodipodi-0.dtd"
   xmlns:xlink="http://www.w3.org/1999/xlink"
   xmlns="http://www.w3.org/2000/svg"
   xmlns:svg="http://www.w3.org/2000/svg">
  <sodipodi:namedview
     id="namedview1"
     pagecolor="#ffffff"
     bordercolor="#000000"
     borderopacity="0.25"
     inkscape:showpageshadow="2"
     inkscape:pageopacity="0.0"
     inkscape:pagecheckerboard="0"
     inkscape:deskcolor="#d1d1d1"
     inkscape:document-units="mm"
     inkscape:zoom="1.0482005"
     inkscape:cx="407.84183"
     inkscape:cy="630.60455"
     inkscape:window-width="1512"
     inkscape:window-height="831"
     inkscape:window-x="0"
     inkscape:window-y="33"
     inkscape:window-maximized="1"
     inkscape:current-layer="layer2" />
  <defs
     id="defs1">
    <marker
       style="overflow:visible"
       id="DartArrow"
       refX="0"
       refY="0"
       orient="auto-start-reverse"
       inkscape:stockid="Dart arrow"
       markerWidth="1"
       markerHeight="1"
       viewBox="0 0 1 1"
       inkscape:isstock="true"
       inkscape:collect="always"
       preserveAspectRatio="xMidYMid">
      <path
         style="fill:context-stroke;fill-rule:evenodd;stroke:none"
         d="M 0,0 5,-5 -12.5,0 5,5 Z"
         transform="scale(-0.5)"
         id="path6" />
    </marker>
    <inkscape:path-effect
       effect="spiro"
       id="path-effect1"
       is_visible="true"
       lpeversion="1" />
    <inkscape:path-effect
       effect="spiro"
       id="path-effect3"
       is_visible="true"
       lpeversion="1" />
    <inkscape:path-effect
       effect="spiro"
       id="path-effect4"
       is_visible="true"
       lpeversion="1" />
    <inkscape:path-effect
       effect="spiro"
       id="path-effect5"
       is_visible="true"
       lpeversion="1" />
    <inkscape:path-effect
       effect="spiro"
       id="path-effect7"
       is_visible="true"
       lpeversion="1" />
    <inkscape:path-effect
       effect="spiro"
       id="path-effect8"
       is_visible="true"
       lpeversion="1" />
    <inkscape:path-effect
       effect="spiro"
       id="path-effect10"
       is_visible="true"
       lpeversion="1" />
    <inkscape:path-effect
       effect="spiro"
       id="path-effect12"
       is_visible="true"
       lpeversion="1" />
    <inkscape:path-effect
       effect="spiro"
       id="path-effect14"
       is_visible="true"
       lpeversion="1" />
    <inkscape:path-effect
       effect="spiro"
       id="path-effect16"
       is_visible="true"
       lpeversion="1" />
    <inkscape:path-effect
       effect="spiro"
       id="path-effect18"
       is_visible="true"
       lpeversion="1" />
    <inkscape:path-effect
       effect="spiro"
       id="path-effect20"
       is_visible="true"
       lpeversion="1" />
    <inkscape:path-effect
       effect="spiro"
       id="path-effect22"
       is_visible="true"
       lpeversion="1" />
    <inkscape:path-effect
       effect="spiro"
       id="path-effect24"
       is_visible="true"
       lpeversion="1" />
    <inkscape:path-effect
       effect="spiro"
       id="path-effect26"
       is_visible="true"
       lpeversion="1" />
    <inkscape:path-effect
       effect="spiro"
       id="path-effect28"
       is_visible="true"
       lpeversion="1" />
    <inkscape:path-effect
       effect="spiro"
       id="path-effect30"
       is_visible="true"
       lpeversion="1" />
    <inkscape:path-effect
       effect="spiro"
       id="path-effect34"
       is_visible="true"
       lpeversion="1" />
    <inkscape:path-effect
       effect="spiro"
       id="path-effect36"
       is_visible="true"
       lpeversion="1" />
    <inkscape:path-effect
       effect="spiro"
       id="path-effect38"
       is_visible="true"
       lpeversion="1" />
    <inkscape:path-effect
       effect="spiro"
       id="path-effect39"
       is_visible="true"
       lpeversion="1" />
    <inkscape:path-effect
       effect="spiro"
       id="path-effect41"
       is_visible="true"
       lpeversion="1" />
    <inkscape:path-effect
       effect="spiro"
       id="path-effect43"
       is_visible="true"
       lpeversion="1" />
    <inkscape:path-effect
       effect="spiro"
       id="path-effect45"
       is_visible="true"
       lpeversion="1" />
    <inkscape:path-effect
       effect="spiro"
       id="path-effect46"
       is_visible="true"
       lpeversion="1" />
    <inkscape:path-effect
       effect="spiro"
       id="path-effect48"
       is_visible="true"
       lpeversion="1" />
    <inkscape:path-effect
       effect="spiro"
       id="path-effect50"
       is_visible="true"
       lpeversion="1" />
    <inkscape:path-effect
       effect="spiro"
       id="path-effect152"
       is_visible="true"
       lpeversion="1" />
    <inkscape:path-effect
       effect="spiro"
       id="path-effect154"
       is_visible="true"
       lpeversion="1" />
    <inkscape:path-effect
       effect="spiro"
       id="path-effect156"
       is_visible="true"
       lpeversion="1" />
    <inkscape:path-effect
       effect="spiro"
       id="path-effect158"
       is_visible="true"
       lpeversion="1" />
    <inkscape:path-effect
       effect="spiro"
       id="path-effect160"
       is_visible="true"
       lpeversion="1" />
    <inkscape:path-effect
       effect="spiro"
       id="path-effect162"
       is_visible="true"
       lpeversion="1" />
    <inkscape:path-effect
       effect="spiro"
       id="path-effect164"
       is_visible="true"
       lpeversion="1" />
    <inkscape:path-effect
       effect="spiro"
       id="path-effect166"
       is_visible="true"
       lpeversion="1" />
    <inkscape:path-effect
       effect="spiro"
       id="path-effect168"
       is_visible="true"
       lpeversion="1" />
    <inkscape:path-effect
       effect="spiro"
       id="path-effect170"
       is_visible="true"
       lpeversion="1" />
    <inkscape:path-effect
       effect="spiro"
       id="path-effect172"
       is_visible="true"
       lpeversion="1" />
    <inkscape:path-effect
       effect="spiro"
       id="path-effect174"
       is_visible="true"
       lpeversion="1" />
    <inkscape:path-effect
       effect="spiro"
       id="path-effect176"
       is_visible="true"
       lpeversion="1" />
    <inkscape:path-effect
       effect="spiro"
       id="path-effect178"
       is_visible="true"
       lpeversion="1" />
    <inkscape:path-effect
       effect="spiro"
       id="path-effect180"
       is_visible="true"
       lpeversion="1" />
    <inkscape:path-effect
       effect="spiro"
       id="path-effect182"
       is_visible="true"
       lpeversion="1" />
    <inkscape:path-effect
       effect="spiro"
       id="path-effect184"
       is_visible="true"
       lpeversion="1" />
    <inkscape:path-effect
       effect="spiro"
       id="path-effect186"
       is_visible="true"
       lpeversion="1" />
    <inkscape:path-effect
       effect="spiro"
       id="path-effect188"
       is_visible="true"
       lpeversion="1" />
    <inkscape:path-effect
       effect="spiro"
       id="path-effect190"
       is_visible="true"
       lpeversion="1" />
    <inkscape:path-effect
       effect="spiro"
       id="path-effect192"
       is_visible="true"
       lpeversion="1" />
    <inkscape:path-effect
       effect="spiro"
       id="path-effect194"
       is_visible="true"
       lpeversion="1" />
    <inkscape:path-effect
       effect="spiro"
       id="path-effect196"
       is_visible="true"
       lpeversion="1" />
    <inkscape:path-effect
       effect="spiro"
       id="path-effect198"
       is_visible="true"
       lpeversion="1" />
    <inkscape:path-effect
       effect="spiro"
       id="path-effect200"
       is_visible="true"
       lpeversion="1" />
    <inkscape:path-effect
       effect="spiro"
       id="path-effect201"
       is_visible="true"
       lpeversion="1" />
    <inkscape:path-effect
       effect="spiro"
       id="path-effect203"
       is_visible="true"
       lpeversion="1" />
    <inkscape:path-effect
       effect="spiro"
       id="path-effect205"
       is_visible="true"
       lpeversion="1" />
    <inkscape:path-effect
       effect="spiro"
       id="path-effect208"
       is_visible="true"
       lpeversion="1" />
    <inkscape:path-effect
       effect="spiro"
       id="path-effect200-9"
       is_visible="true"
       lpeversion="1" />
    <inkscape:path-effect
       effect="spiro"
       id="path-effect205-5"
       is_visible="true"
       lpeversion="1" />
    <inkscape:path-effect
       effect="spiro"
       id="path-effect203-7"
       is_visible="true"
       lpeversion="1" />
    <inkscape:path-effect
       effect="spiro"
       id="path-effect152-6"
       is_visible="true"
       lpeversion="1" />
    <inkscape:path-effect
       effect="spiro"
       id="path-effect200-9-7"
       is_visible="true"
       lpeversion="1" />
    <inkscape:path-effect
       effect="spiro"
       id="path-effect200-9-6"
       is_visible="true"
       lpeversion="1" />
    <g
       id="g8735">
      <g
         id="g2979">
        <path
           d="m 5.671875,-17.203125 -3.046875,3.375 0.296875,0.296875 2.75,-2.671875 2.75,2.671875 0.296875,-0.296875 z m 0,0"
           id="path5210" />
      </g>
      <g
         id="g1834">
        <path
           d="m 15.9375,-7.953125 c 0.375,0 0.734375,0 0.734375,-0.421875 0,-0.453125 -0.421875,-0.453125 -0.84375,-0.453125 H 1.984375 c -0.421875,0 -0.84375,0 -0.84375,0.453125 0,0.421875 0.375,0.421875 0.75,0.421875 z m -0.109375,4.40625 c 0.421875,0 0.84375,0 0.84375,-0.4375 0,-0.421875 -0.359375,-0.421875 -0.734375,-0.421875 H 1.890625 c -0.375,0 -0.75,0 -0.75,0.421875 0,0.4375 0.421875,0.4375 0.84375,0.4375 z m 0,0"
           id="path2785" />
      </g>
      <g
         id="g2528">
        <path
           d="m 20.5625,-15.984375 c 0,-1.140625 -1.90625,-0.96875 -2.671875,-0.96875 h -9.34375 c -1.234375,0 -3.4375,0.71875 -3.84375,2.0625 0.0625,0.140625 0.109375,0.171875 0.25,0.171875 0.546875,0 1.296875,-0.453125 1.640625,-0.8125 0.765625,0 1.515625,-0.0625 2.28125,-0.0625 h 1.53125 c 0,0 -0.09375,0.453125 -0.09375,0.484375 -0.96875,4.53125 -2.4375,8.375 -3.515625,10.796875 -0.15625,0.328125 -1.5,3.421875 -1.84375,3.71875 -1.09375,0 -1.90625,-0.59375 -2.34375,-1.5625 -0.078125,-0.140625 -0.078125,-0.25 -0.25,-0.25 -0.578125,0 -1.9375,0.796875 -1.9375,1.21875 0,0.046875 0.03125,0.09375 0.046875,0.140625 0.453125,1.171875 1.5625,1.84375 2.78125,1.84375 1.265625,0 2.71875,-0.921875 3.515625,-1.84375 0.8125,-0.9375 2.453125,-5 3.09375,-6.484375 h 4.78125 c -0.01563,0.015625 -0.04687,0.046875 -0.04687,0.078125 0,0.09375 0.15625,0.171875 0.25,0.171875 0.546875,0 1.953125,-0.703125 1.953125,-1.46875 0,-0.171875 -0.171875,-0.140625 -0.46875,-0.140625 h -5.9375 C 11.03125,-11.125 11.875,-13.3125 12.3125,-15.59375 h 3.28125 c 0.609375,0 2.34375,-0.125 2.796875,0.421875 0.04687,0.15625 -0.03125,0.40625 0.04687,0.53125 0.04687,0.04687 0.125,0.0625 0.203125,0.0625 0.59375,0 1.921875,-0.734375 1.921875,-1.40625 z m 0,0"
           id="path151-1" />
      </g>
      <g
         id="g3948">
        <path
           d="m 3.9375,-17.6875 c 0,-0.453125 0,-0.890625 -0.5,-0.890625 -0.484375,0 -0.484375,0.4375 -0.484375,0.890625 V 5.296875 c 0,0.453125 0,0.890625 0.484375,0.890625 0.5,0 0.5,-0.4375 0.5,-0.890625 z m 0,0"
           id="path6030" />
      </g>
      <g
         id="g6870">
        <path
           d="m 6.765625,-5.78125 c 0.125,-0.296875 0.125,-0.34375 0.125,-0.40625 0,-0.078125 0,-0.125 -0.125,-0.421875 l -4.34375,-11.40625 c -0.140625,-0.421875 -0.296875,-0.5625 -0.5625,-0.5625 -0.265625,0 -0.5,0.21875 -0.5,0.484375 0,0.07813 0,0.125 0.125,0.40625 L 5.875,-6.1875 1.484375,5.25 c -0.125,0.28125 -0.125,0.328125 -0.125,0.453125 0,0.265625 0.234375,0.484375 0.5,0.484375 C 2.1875,6.1875 2.28125,5.953125 2.375,5.703125 Z m 0,0"
           id="path6982" />
      </g>
      <g
         id="g7212">
        <path
           d="m 10.65625,-16.96875 c 0,-0.234375 -0.171875,-0.234375 -0.25,-0.234375 -0.21875,0 -0.25,0.04687 -0.34375,0.46875 l -1.34375,5.328125 c -0.0625,0.328125 -0.09375,0.359375 -0.125,0.375 -0.015625,0.04687 -0.1875,0.07813 -0.25,0.07813 -4.0625,0.34375 -7.171875,3.6875 -7.171875,6.796875 0,2.671875 2.046875,4.3125 4.625,4.453125 C 5.59375,1.0625 5.421875,1.859375 5.234375,2.625 4.875,3.9375 4.6875,4.765625 4.6875,4.859375 c 0,0.046875 0,0.203125 0.25,0.203125 0.0625,0 0.171875,0 0.21875,-0.109375 C 5.203125,4.90625 5.359375,4.3125 5.453125,3.984375 L 6.375,0.296875 c 4.234375,-0.21875 7.453125,-3.6875 7.453125,-6.8125 0,-2.5 -1.890625,-4.28125 -4.640625,-4.46875 z m -1.609375,6.484375 c 1.640625,0.09375 3.265625,1.015625 3.265625,3.453125 0,2.796875 -1.953125,6.515625 -5.8125,6.8125 z m -3.125,10.28125 c -1.21875,-0.0625 -3.25,-0.71875 -3.25,-3.4375 0,-3.125 2.265625,-6.59375 5.828125,-6.8125 z m 0,0"
           id="path430" />
      </g>
      <g
         id="g5963">
        <path
           d="m 11.46875,-6.265625 c 0,-2.40625 -1.359375,-4.65625 -3.984375,-4.65625 -3.25,0 -6.5,3.53125 -6.5,7.0625 0,2.15625 1.34375,4.109375 3.875,4.109375 1.53125,0 3.375,-0.59375 5.125,-2.078125 0.34375,1.375 1.125,2.078125 2.1875,2.078125 1.328125,0 2,-1.390625 2,-1.71875 0,-0.21875 -0.171875,-0.21875 -0.25,-0.21875 -0.1875,0 -0.21875,0.078125 -0.296875,0.28125 -0.21875,0.609375 -0.78125,1.15625 -1.390625,1.15625 -0.765625,0 -0.765625,-1.578125 -0.765625,-3.09375 2.53125,-3.03125 3.125,-6.140625 3.125,-6.171875 0,-0.21875 -0.203125,-0.21875 -0.265625,-0.21875 -0.234375,0 -0.25,0.0625 -0.34375,0.515625 -0.328125,1.09375 -0.96875,3.03125 -2.515625,5.0625 z m -1.5625,3.84375 c -2.171875,1.953125 -4.125,2.171875 -5,2.171875 -1.765625,0 -2.25,-1.5625 -2.25,-2.71875 0,-1.078125 0.546875,-3.59375 1.3125,-4.96875 1.015625,-1.734375 2.40625,-2.5 3.515625,-2.5 2.40625,0 2.40625,3.15625 2.40625,5.234375 0,0.625 -0.03125,1.265625 -0.03125,1.875 0,0.5 0.03125,0.625 0.046875,0.90625 z m 0,0"
           id="path7266" />
      </g>
      <g
         id="g4505">
        <path
           d="m 4.4375,-5.75 c 0.671875,0 2.359375,-0.046875 3.546875,-0.5 1.875,-0.71875 2.046875,-2.15625 2.046875,-2.59375 0,-1.09375 -0.9375,-2.078125 -2.578125,-2.078125 -2.59375,0 -6.34375,2.34375 -6.34375,6.765625 0,2.59375 1.5,4.40625 3.75,4.40625 3.375,0 5.5,-2.625 5.5,-2.953125 0,-0.140625 -0.15625,-0.265625 -0.25,-0.265625 -0.07813,0 -0.09375,0.015625 -0.328125,0.25 C 8.203125,-0.625 5.84375,-0.25 4.90625,-0.25 3.5,-0.25 2.75,-1.359375 2.75,-3.203125 2.75,-3.546875 2.75,-4.15625 3.125,-5.75 Z M 3.25,-6.25 c 1.0625,-3.8125 3.421875,-4.1875 4.203125,-4.1875 1.09375,0 1.84375,0.65625 1.84375,1.59375 0,2.59375 -3.96875,2.59375 -5.015625,2.59375 z m 0,0"
           id="path7580" />
      </g>
      <g
         id="g6310">
        <path
           d="m 7.015625,-3.546875 c 0,-0.125 -0.109375,-0.21875 -0.25,-0.21875 -0.21875,0 -0.25,0.078125 -0.375,0.5 C 5.75,-1.015625 4.734375,-0.25 3.921875,-0.25 c -0.296875,0 -0.65625,-0.078125 -0.65625,-0.8125 0,-0.671875 0.296875,-1.421875 0.578125,-2.15625 l 1.734375,-4.609375 c 0.078125,-0.203125 0.25,-0.640625 0.25,-1.125 0,-1.03125 -0.75,-1.96875 -1.96875,-1.96875 -2.265625,0 -3.1875,3.59375 -3.1875,3.78125 0,0.109375 0.09375,0.234375 0.265625,0.234375 0.234375,0 0.25,-0.109375 0.34375,-0.453125 0.609375,-2.078125 1.546875,-3.078125 2.515625,-3.078125 0.21875,0 0.640625,0.03125 0.640625,0.828125 0,0.640625 -0.328125,1.453125 -0.515625,2 L 2.1875,-3 c -0.15625,0.390625 -0.296875,0.796875 -0.296875,1.234375 0,1.125 0.765625,2.015625 1.953125,2.015625 2.28125,0 3.171875,-3.625 3.171875,-3.796875 z M 6.8125,-15.46875 c 0,-0.359375 -0.296875,-0.8125 -0.84375,-0.8125 -0.5625,0 -1.203125,0.546875 -1.203125,1.1875 0,0.625 0.515625,0.8125 0.8125,0.8125 0.671875,0 1.234375,-0.640625 1.234375,-1.1875 z m 0,0"
           id="path1036" />
      </g>
    </g>
    <inkscape:path-effect
       effect="spiro"
       id="path-effect205-5-0"
       is_visible="true"
       lpeversion="1" />
    <inkscape:path-effect
       effect="spiro"
       id="path-effect152-6-2"
       is_visible="true"
       lpeversion="1" />
    <inkscape:path-effect
       effect="spiro"
       id="path-effect203-7-3"
       is_visible="true"
       lpeversion="1" />
    <marker
       style="overflow:visible"
       id="marker206"
       refX="0"
       refY="0"
       orient="auto-start-reverse"
       inkscape:stockid="Dart arrow"
       markerWidth="1"
       markerHeight="1"
       viewBox="0 0 1 1"
       inkscape:isstock="true"
       inkscape:collect="always"
       preserveAspectRatio="xMidYMid">
      <path
         style="fill:context-stroke;fill-rule:evenodd;stroke:none"
         d="M 0,0 5,-5 -12.5,0 5,5 Z"
         transform="scale(-0.5)"
         id="path206" />
    </marker>
    <inkscape:path-effect
       effect="spiro"
       id="path-effect208-7"
       is_visible="true"
       lpeversion="1" />
    <pattern
       inkscape:collect="always"
       xlink:href="#Wave"
       preserveAspectRatio="xMidYMid"
       id="pattern12"
       patternTransform="matrix(0.47356477,0,0,0.47356477,24.605187,33.300492)"
       x="0"
       y="0" />
    <pattern
       patternUnits="userSpaceOnUse"
       width="24"
       height="10"
       preserveAspectRatio="xMidYMid"
       id="Wave"
       style="fill:#38006f"
       x="0"
       y="0"
       inkscape:collect="always"
       inkscape:isstock="true"
       inkscape:label="Onda">
      <g
         id="wave_g"
         style="display:inline">
        <path
           d="M 12,-2 C 9.1666695,-2 7.1679672,-0.56445187 5.4179687,0.68554687 3.6679703,1.9355456 2.1666645,3 0,3 V 5 C 2.8333305,5 4.8320328,3.5644519 6.5820312,2.3144531 8.3320297,1.0644544 9.8333355,0 12,0 14.166665,0 15.667971,1.0644544 17.417969,2.3144531 19.167967,3.5644519 21.166669,5 24,5 V 3 C 21.833335,3 20.332029,1.9355456 18.582031,0.68554687 16.832033,-0.56445189 14.833331,-2 12,-2 Z"
           id="path10" />
        <path
           d="M 12,3 C 9.1666695,3 7.1679672,4.4355481 5.4179687,5.6855469 3.6679703,6.9355456 2.1666645,8 0,8 v 2 C 2.8333305,10 4.8320328,8.5644519 6.5820312,7.3144531 8.3320297,6.0644544 9.8333355,5 12,5 14.166665,5 15.667971,6.0644544 17.417969,7.3144531 19.167967,8.5644519 21.166669,10 24,10 V 8 C 21.833335,8 20.332029,6.9355456 18.582031,5.6855469 16.832033,4.4355481 14.833331,3 12,3 Z"
           id="path11" />
        <path
           d="M 12,8 C 9.1666695,8 7.1679672,9.4355481 5.4179687,10.685547 3.6679703,11.935546 2.1666645,13 0,13 v 2 C 2.8333305,15 4.8320328,13.564452 6.5820312,12.314453 8.3320297,11.064454 9.8333355,10 12,10 c 2.166665,0 3.667971,1.064454 5.417969,2.314453 C 19.167967,13.564452 21.166669,15 24,15 V 13 C 21.833335,13 20.332029,11.935546 18.582031,10.685547 16.832033,9.4355481 14.833331,8 12,8 Z"
           id="path12" />
      </g>
    </pattern>
    <marker
       style="overflow:visible"
       id="marker202"
       refX="0"
       refY="0"
       orient="auto-start-reverse"
       inkscape:stockid="Dart arrow"
       markerWidth="1"
       markerHeight="1"
       viewBox="0 0 1 1"
       inkscape:isstock="true"
       inkscape:collect="always"
       preserveAspectRatio="xMidYMid">
      <path
         style="fill:context-stroke;fill-rule:evenodd;stroke:none"
         d="M 0,0 5,-5 -12.5,0 5,5 Z"
         transform="scale(-0.5)"
         id="path202" />
    </marker>
    <inkscape:path-effect
       effect="spiro"
       id="path-effect201-1"
       is_visible="true"
       lpeversion="1" />
    <inkscape:path-effect
       effect="spiro"
       id="path-effect4-8"
       is_visible="true"
       lpeversion="1" />
    <pattern
       inkscape:collect="always"
       xlink:href="#Wave-4"
       preserveAspectRatio="xMidYMid"
       id="pattern12-9"
       patternTransform="matrix(0.44361958,0,0,0.44361958,-8.0300999,0.02993411)"
       x="0"
       y="0" />
    <pattern
       patternUnits="userSpaceOnUse"
       width="24"
       height="10"
       preserveAspectRatio="xMidYMid"
       id="Wave-4"
       style="fill:#38006f"
       x="0"
       y="0"
       inkscape:collect="always"
       inkscape:isstock="true"
       inkscape:label="Onda">
      <g
         id="wave_g-1"
         style="display:inline">
        <path
           d="M 12,-2 C 9.1666695,-2 7.1679672,-0.56445187 5.4179687,0.68554687 3.6679703,1.9355456 2.1666645,3 0,3 V 5 C 2.8333305,5 4.8320328,3.5644519 6.5820312,2.3144531 8.3320297,1.0644544 9.8333355,0 12,0 14.166665,0 15.667971,1.0644544 17.417969,2.3144531 19.167967,3.5644519 21.166669,5 24,5 V 3 C 21.833335,3 20.332029,1.9355456 18.582031,0.68554687 16.832033,-0.56445189 14.833331,-2 12,-2 Z"
           id="path10-3" />
        <path
           d="M 12,3 C 9.1666695,3 7.1679672,4.4355481 5.4179687,5.6855469 3.6679703,6.9355456 2.1666645,8 0,8 v 2 C 2.8333305,10 4.8320328,8.5644519 6.5820312,7.3144531 8.3320297,6.0644544 9.8333355,5 12,5 14.166665,5 15.667971,6.0644544 17.417969,7.3144531 19.167967,8.5644519 21.166669,10 24,10 V 8 C 21.833335,8 20.332029,6.9355456 18.582031,5.6855469 16.832033,4.4355481 14.833331,3 12,3 Z"
           id="path11-7" />
        <path
           d="M 12,8 C 9.1666695,8 7.1679672,9.4355481 5.4179687,10.685547 3.6679703,11.935546 2.1666645,13 0,13 v 2 C 2.8333305,15 4.8320328,13.564452 6.5820312,12.314453 8.3320297,11.064454 9.8333355,10 12,10 c 2.166665,0 3.667971,1.064454 5.417969,2.314453 C 19.167967,13.564452 21.166669,15 24,15 V 13 C 21.833335,13 20.332029,11.935546 18.582031,10.685547 16.832033,9.4355481 14.833331,8 12,8 Z"
           id="path12-8" />
      </g>
    </pattern>
    <marker
       style="overflow:visible"
       id="marker206-8"
       refX="0"
       refY="0"
       orient="auto-start-reverse"
       inkscape:stockid="Dart arrow"
       markerWidth="1"
       markerHeight="1"
       viewBox="0 0 1 1"
       inkscape:isstock="true"
       inkscape:collect="always"
       preserveAspectRatio="xMidYMid">
      <path
         style="fill:context-stroke;fill-rule:evenodd;stroke:none"
         d="M 0,0 5,-5 -12.5,0 5,5 Z"
         transform="scale(-0.5)"
         id="path206-6" />
    </marker>
    <inkscape:path-effect
       effect="spiro"
       id="path-effect205-5-0-0"
       is_visible="true"
       lpeversion="1" />
    <inkscape:path-effect
       effect="spiro"
       id="path-effect152-6-2-4"
       is_visible="true"
       lpeversion="1" />
    <marker
       style="overflow:visible"
       id="marker204"
       refX="0"
       refY="0"
       orient="auto-start-reverse"
       inkscape:stockid="Dart arrow"
       markerWidth="1"
       markerHeight="1"
       viewBox="0 0 1 1"
       inkscape:isstock="true"
       inkscape:collect="always"
       preserveAspectRatio="xMidYMid">
      <path
         style="fill:context-stroke;fill-rule:evenodd;stroke:none"
         d="M 0,0 5,-5 -12.5,0 5,5 Z"
         transform="scale(-0.5)"
         id="path204" />
    </marker>
    <inkscape:path-effect
       effect="spiro"
       id="path-effect203-7-3-0"
       is_visible="true"
       lpeversion="1" />
  </defs>
  <g
     inkscape:groupmode="layer"
     id="layer3"
     inkscape:label="Capa 3">
    <path
       style="fill:none;fill-opacity:1;stroke:#000000;stroke-width:0.607;stroke-miterlimit:3.9;stroke-dasharray:none;stroke-opacity:1"
       d="M 63.783783,196.92285 139.70191,165.84967"
       id="path127"
       transform="rotate(-41.291826,46.556097,222.72386)"
       inkscape:original-d="M 63.783783,196.92285 139.70191,165.84967"
       inkscape:path-effect="#path-effect152-6-2-4" />
    <path
       style="fill:none;fill-opacity:1;stroke:#000000;stroke-width:0.357;stroke-miterlimit:3.9;stroke-dasharray:none;stroke-dashoffset:0;stroke-opacity:1;marker-end:url(#marker204)"
       d="m 97.197959,183.68307 c 0.0402,-1.26452 -0.0608,-2.53348 -0.3005,-3.77573 -0.716692,-3.71421 -2.70947,-7.1699 -5.565181,-9.65062 -2.855711,-2.48071 -6.556134,-3.97062 -10.334076,-4.16083"
       id="path203"
       transform="translate(-20.710115,-5.5621838)"
       inkscape:original-d="m 97.197959,183.68307 c -0.198202,-1.44651 -0.249351,-2.61112 -0.3005,-3.77573 -0.05115,-1.16462 -10.599505,-9.20763 -15.899257,-13.81145"
       inkscape:path-effect="#path-effect203-7-3-0" />
    <path
       style="fill:none;fill-opacity:1;stroke:#000000;stroke-width:0.357;stroke-miterlimit:3.9;stroke-dasharray:none;stroke-dashoffset:0;stroke-opacity:1;marker-end:url(#marker206-8)"
       d="m 90.131817,143.07761 c 0.181825,-0.64839 0.18896,-1.34488 0.02046,-1.99686 -0.168503,-0.65197 -0.512219,-1.25779 -0.985441,-1.73688 -0.473221,-0.47909 -1.074754,-0.83025 -1.724603,-1.00677 -0.64985,-0.17653 -1.346378,-0.17798 -1.996957,-0.004 -0.787118,0.2103 -1.483721,0.6632 -2.167801,1.10571 -0.68408,0.44251 -1.386736,0.8885 -2.178133,1.08208 -0.975913,0.23871 -2.046805,0.0595 -2.891842,-0.48391 -0.845036,-0.54341 -1.452387,-1.44344 -1.640092,-2.43043"
       id="path205"
       transform="translate(-21.68195,-2.8059406)"
       inkscape:original-d="m 90.131817,143.07761 c -1.464146,-1.58156 -3.075345,-3.16312 -4.686544,-4.74467 -1.611198,-1.58156 -2.89729,1.36243 -4.345934,2.18779 -1.448647,0.82536 -3.02129,-1.8468 -4.531934,-2.91434"
       inkscape:path-effect="#path-effect205-5-0-0" />
    <g
       inkscape:label=""
       transform="matrix(2.6767155,0,0,2.6767155,61.300248,166.39363)"
       id="g220">
      <g
         fill="#000000"
         fill-opacity="1"
         id="g219"
         transform="matrix(0.352778,0,0,0.352778,-0.901524,-0.704894)">
        <g
           id="g218"
           transform="translate(1.993,10.295)">
          <path
             d="m 5.140625,-8.1875 c 0,-0.109375 -0.078125,-0.109375 -0.125,-0.109375 -0.109375,0 -0.109375,0.03125 -0.15625,0.234375 L 4.203125,-5.5 c -0.03125,0.15625 -0.046875,0.171875 -0.0625,0.1875 0,0.015625 -0.09375,0.03125 -0.109375,0.03125 C 2.0625,-5.109375 0.5625,-3.5 0.5625,-2.015625 c 0,1.296875 0.984375,2.09375 2.234375,2.15625 -0.09375,0.375 -0.171875,0.75 -0.28125,1.125 -0.15625,0.640625 -0.25,1.03125 -0.25,1.078125 0,0.015625 0,0.09375 0.109375,0.09375 0.046875,0 0.09375,0 0.109375,-0.046875 0.03125,-0.03125 0.09375,-0.3125 0.140625,-0.46875 l 0.453125,-1.78125 c 2.03125,-0.109375 3.59375,-1.78125 3.59375,-3.28125 0,-1.203125 -0.90625,-2.078125 -2.234375,-2.15625 z m -0.78125,3.125 C 5.15625,-5.015625 5.9375,-4.5625 5.9375,-3.390625 5.9375,-2.046875 5,-0.25 3.125,-0.109375 Z m -1.5,4.96875 C 2.265625,-0.125 1.296875,-0.4375 1.296875,-1.75 c 0,-1.515625 1.078125,-3.1875 2.796875,-3.296875 z m 0,0"
             id="path217" />
        </g>
      </g>
    </g>
    <g
       inkscape:label=""
       transform="matrix(1.8912688,0,0,1.8912688,49.125958,125.30718)"
       id="g237">
      <g
         fill="#000000"
         fill-opacity="1"
         id="g232"
         transform="matrix(0.352778,0,0,0.352778,-1.20469,-0.702116)">
        <g
           id="g231"
           transform="translate(1.993,10.959)">
          <path
             d="m 1.90625,-8.53125 c 0,-0.21875 0,-0.4375 -0.25,-0.4375 -0.234375,0 -0.234375,0.21875 -0.234375,0.4375 V 2.5625 c 0,0.203125 0,0.421875 0.234375,0.421875 0.25,0 0.25,-0.21875 0.25,-0.421875 z m 0,0"
             id="path230" />
        </g>
      </g>
      <g
         fill="#000000"
         fill-opacity="1"
         id="g234"
         transform="matrix(0.352778,0,0,0.352778,-1.20469,-0.702116)">
        <g
           id="g233"
           transform="translate(5.3130002,10.959)">
          <path
             d="m 5.53125,-3.03125 c 0,-1.15625 -0.65625,-2.234375 -1.921875,-2.234375 -1.5625,0 -3.125,1.703125 -3.125,3.40625 0,1.03125 0.640625,1.984375 1.859375,1.984375 0.734375,0 1.625,-0.296875 2.46875,-1.015625 C 4.984375,-0.21875 5.359375,0.125 5.875,0.125 c 0.640625,0 0.96875,-0.671875 0.96875,-0.828125 0,-0.109375 -0.09375,-0.109375 -0.125,-0.109375 -0.09375,0 -0.109375,0.03125 -0.140625,0.125 C 6.46875,-0.375 6.1875,-0.125 5.90625,-0.125 c -0.375,0 -0.375,-0.765625 -0.375,-1.484375 1.21875,-1.46875 1.515625,-2.96875 1.515625,-2.984375 0,-0.109375 -0.109375,-0.109375 -0.140625,-0.109375 -0.109375,0 -0.109375,0.046875 -0.171875,0.25 -0.140625,0.53125 -0.453125,1.46875 -1.203125,2.4375 z m -0.75,1.859375 c -1.046875,0.9375 -2,1.046875 -2.421875,1.046875 -0.84375,0 -1.078125,-0.75 -1.078125,-1.3125 0,-0.515625 0.265625,-1.734375 0.625,-2.390625 0.5,-0.828125 1.171875,-1.203125 1.703125,-1.203125 1.15625,0 1.15625,1.515625 1.15625,2.515625 0,0.296875 -0.015625,0.609375 -0.015625,0.90625 0,0.25 0.015625,0.3125 0.03125,0.4375 z m 0,0"
             id="path232" />
        </g>
      </g>
      <g
         fill="#000000"
         fill-opacity="1"
         id="g236"
         transform="matrix(0.352778,0,0,0.352778,-1.20469,-0.702116)">
        <g
           id="g235"
           transform="translate(12.835,10.959)">
          <path
             d="m 1.90625,-8.53125 c 0,-0.21875 0,-0.4375 -0.25,-0.4375 -0.234375,0 -0.234375,0.21875 -0.234375,0.4375 V 2.5625 c 0,0.203125 0,0.421875 0.234375,0.421875 0.25,0 0.25,-0.21875 0.25,-0.421875 z m 0,0"
             id="path234" />
        </g>
      </g>
    </g>
    <circle
       style="display:inline;opacity:0.79845;fill:url(#pattern12-9);stroke:#5d00ce;stroke-width:0.434747;stroke-dasharray:none"
       id="path4-8"
       cx="79.311951"
       cy="118.72559"
       r="16.609921" />
    <g
       inkscape:label=""
       transform="translate(54.234906,86.549085)"
       id="g19">
      <g
         fill="#000000"
         fill-opacity="1"
         id="g10"
         transform="matrix(0.352778,0,0,0.352778,-0.851914,-0.70657)">
        <g
           id="use9"
           transform="translate(9.2010002,19.205999)">
          <path
             d="m 5.671875,-17.203125 -3.046875,3.375 0.296875,0.296875 2.75,-2.671875 2.75,2.671875 0.296875,-0.296875 z m 0,0"
             id="path21" />
        </g>
      </g>
      <g
         fill="#000000"
         fill-opacity="1"
         id="g11"
         transform="matrix(0.352778,0,0,0.352778,-0.851914,-0.70657)">
        <g
           id="use10"
           transform="translate(1.993,25.473)">
          <path
             d="m 20.5625,-15.984375 c 0,-1.140625 -1.90625,-0.96875 -2.671875,-0.96875 h -9.34375 c -1.234375,0 -3.4375,0.71875 -3.84375,2.0625 0.0625,0.140625 0.109375,0.171875 0.25,0.171875 0.546875,0 1.296875,-0.453125 1.640625,-0.8125 0.765625,0 1.515625,-0.0625 2.28125,-0.0625 h 1.53125 c 0,0 -0.09375,0.453125 -0.09375,0.484375 -0.96875,4.53125 -2.4375,8.375 -3.515625,10.796875 -0.15625,0.328125 -1.5,3.421875 -1.84375,3.71875 -1.09375,0 -1.90625,-0.59375 -2.34375,-1.5625 -0.078125,-0.140625 -0.078125,-0.25 -0.25,-0.25 -0.578125,0 -1.9375,0.796875 -1.9375,1.21875 0,0.046875 0.03125,0.09375 0.046875,0.140625 0.453125,1.171875 1.5625,1.84375 2.78125,1.84375 1.265625,0 2.71875,-0.921875 3.515625,-1.84375 0.8125,-0.9375 2.453125,-5 3.09375,-6.484375 h 4.78125 c -0.01563,0.015625 -0.04687,0.046875 -0.04687,0.078125 0,0.09375 0.15625,0.171875 0.25,0.171875 0.546875,0 1.953125,-0.703125 1.953125,-1.46875 0,-0.171875 -0.171875,-0.140625 -0.46875,-0.140625 h -5.9375 C 11.03125,-11.125 11.875,-13.3125 12.3125,-15.59375 h 3.28125 c 0.609375,0 2.34375,-0.125 2.796875,0.421875 0.04687,0.15625 -0.03125,0.40625 0.04687,0.53125 0.04687,0.04687 0.125,0.0625 0.203125,0.0625 0.59375,0 1.921875,-0.734375 1.921875,-1.40625 z m 0,0"
             id="path22" />
        </g>
      </g>
      <g
         fill="#000000"
         fill-opacity="1"
         id="g12"
         transform="matrix(0.352778,0,0,0.352778,-0.851914,-0.70657)">
        <g
           id="use11"
           transform="translate(19.808001,34.148998)">
          <path
             d="m 10.65625,-16.96875 c 0,-0.234375 -0.171875,-0.234375 -0.25,-0.234375 -0.21875,0 -0.25,0.04687 -0.34375,0.46875 l -1.34375,5.328125 c -0.0625,0.328125 -0.09375,0.359375 -0.125,0.375 -0.015625,0.04687 -0.1875,0.07813 -0.25,0.07813 -4.0625,0.34375 -7.171875,3.6875 -7.171875,6.796875 0,2.671875 2.046875,4.3125 4.625,4.453125 C 5.59375,1.0625 5.421875,1.859375 5.234375,2.625 4.875,3.9375 4.6875,4.765625 4.6875,4.859375 c 0,0.046875 0,0.203125 0.25,0.203125 0.0625,0 0.171875,0 0.21875,-0.109375 C 5.203125,4.90625 5.359375,4.3125 5.453125,3.984375 L 6.375,0.296875 c 4.234375,-0.21875 7.453125,-3.6875 7.453125,-6.8125 0,-2.5 -1.890625,-4.28125 -4.640625,-4.46875 z m -1.609375,6.484375 c 1.640625,0.09375 3.265625,1.015625 3.265625,3.453125 0,2.796875 -1.953125,6.515625 -5.8125,6.8125 z m -3.125,10.28125 c -1.21875,-0.0625 -3.25,-0.71875 -3.25,-3.4375 0,-3.125 2.265625,-6.59375 5.828125,-6.8125 z m 0,0"
             id="path23" />
        </g>
      </g>
      <g
         fill="#000000"
         fill-opacity="1"
         id="g13"
         transform="matrix(0.352778,0,0,0.352778,-0.851914,-0.70657)">
        <g
           id="use12"
           transform="translate(38.801998,25.473)">
          <path
             d="m 3.9375,-17.6875 c 0,-0.453125 0,-0.890625 -0.5,-0.890625 -0.484375,0 -0.484375,0.4375 -0.484375,0.890625 V 5.296875 c 0,0.453125 0,0.890625 0.484375,0.890625 0.5,0 0.5,-0.4375 0.5,-0.890625 z m 0,0"
             id="path24" />
        </g>
      </g>
      <g
         fill="#000000"
         fill-opacity="1"
         id="g14"
         transform="matrix(0.352778,0,0,0.352778,-0.851914,-0.70657)">
        <g
           id="use13"
           transform="translate(45.687855,25.473)">
          <path
             d="m 11.46875,-6.265625 c 0,-2.40625 -1.359375,-4.65625 -3.984375,-4.65625 -3.25,0 -6.5,3.53125 -6.5,7.0625 0,2.15625 1.34375,4.109375 3.875,4.109375 1.53125,0 3.375,-0.59375 5.125,-2.078125 0.34375,1.375 1.125,2.078125 2.1875,2.078125 1.328125,0 2,-1.390625 2,-1.71875 0,-0.21875 -0.171875,-0.21875 -0.25,-0.21875 -0.1875,0 -0.21875,0.078125 -0.296875,0.28125 -0.21875,0.609375 -0.78125,1.15625 -1.390625,1.15625 -0.765625,0 -0.765625,-1.578125 -0.765625,-3.09375 2.53125,-3.03125 3.125,-6.140625 3.125,-6.171875 0,-0.21875 -0.203125,-0.21875 -0.265625,-0.21875 -0.234375,0 -0.25,0.0625 -0.34375,0.515625 -0.328125,1.09375 -0.96875,3.03125 -2.515625,5.0625 z m -1.5625,3.84375 c -2.171875,1.953125 -4.125,2.171875 -5,2.171875 -1.765625,0 -2.25,-1.5625 -2.25,-2.71875 0,-1.078125 0.546875,-3.59375 1.3125,-4.96875 1.015625,-1.734375 2.40625,-2.5 3.515625,-2.5 2.40625,0 2.40625,3.15625 2.40625,5.234375 0,0.625 -0.03125,1.265625 -0.03125,1.875 0,0.5 0.03125,0.625 0.046875,0.90625 z m 0,0"
             id="path25" />
        </g>
      </g>
      <g
         fill="#000000"
         fill-opacity="1"
         id="g15"
         transform="matrix(0.352778,0,0,0.352778,-0.851914,-0.70657)">
        <g
           id="use14"
           transform="translate(61.273987,25.473)">
          <path
             d="m 6.765625,-5.78125 c 0.125,-0.296875 0.125,-0.34375 0.125,-0.40625 0,-0.078125 0,-0.125 -0.125,-0.421875 l -4.34375,-11.40625 c -0.140625,-0.421875 -0.296875,-0.5625 -0.5625,-0.5625 -0.265625,0 -0.5,0.21875 -0.5,0.484375 0,0.07813 0,0.125 0.125,0.40625 L 5.875,-6.1875 1.484375,5.25 c -0.125,0.28125 -0.125,0.328125 -0.125,0.453125 0,0.265625 0.234375,0.484375 0.5,0.484375 C 2.1875,6.1875 2.28125,5.953125 2.375,5.703125 Z m 0,0"
             id="path26" />
        </g>
      </g>
      <g
         fill="#000000"
         fill-opacity="1"
         id="g16"
         transform="matrix(0.352778,0,0,0.352778,-0.851914,-0.70657)">
        <g
           id="use15"
           transform="translate(77.804504,25.473)">
          <path
             d="m 15.9375,-7.953125 c 0.375,0 0.734375,0 0.734375,-0.421875 0,-0.453125 -0.421875,-0.453125 -0.84375,-0.453125 H 1.984375 c -0.421875,0 -0.84375,0 -0.84375,0.453125 0,0.421875 0.375,0.421875 0.75,0.421875 z m -0.109375,4.40625 c 0.421875,0 0.84375,0 0.84375,-0.4375 0,-0.421875 -0.359375,-0.421875 -0.734375,-0.421875 H 1.890625 c -0.375,0 -0.75,0 -0.75,0.421875 0,0.4375 0.421875,0.4375 0.84375,0.4375 z m 0,0"
             id="path27" />
        </g>
      </g>
      <g
         fill="#000000"
         fill-opacity="1"
         id="g17"
         transform="matrix(0.352778,0,0,0.352778,-0.851914,-0.70657)">
        <g
           id="use16"
           transform="translate(102.53707,25.473)">
          <path
             d="m 3.9375,-17.6875 c 0,-0.453125 0,-0.890625 -0.5,-0.890625 -0.484375,0 -0.484375,0.4375 -0.484375,0.890625 V 5.296875 c 0,0.453125 0,0.890625 0.484375,0.890625 0.5,0 0.5,-0.4375 0.5,-0.890625 z m 0,0"
             id="path28" />
        </g>
      </g>
      <g
         fill="#000000"
         fill-opacity="1"
         id="g18"
         transform="matrix(0.352778,0,0,0.352778,-0.851914,-0.70657)">
        <g
           id="use17"
           transform="translate(109.42293,25.473)">
          <path
             d="m 11.46875,-6.265625 c 0,-2.40625 -1.359375,-4.65625 -3.984375,-4.65625 -3.25,0 -6.5,3.53125 -6.5,7.0625 0,2.15625 1.34375,4.109375 3.875,4.109375 1.53125,0 3.375,-0.59375 5.125,-2.078125 0.34375,1.375 1.125,2.078125 2.1875,2.078125 1.328125,0 2,-1.390625 2,-1.71875 0,-0.21875 -0.171875,-0.21875 -0.25,-0.21875 -0.1875,0 -0.21875,0.078125 -0.296875,0.28125 -0.21875,0.609375 -0.78125,1.15625 -1.390625,1.15625 -0.765625,0 -0.765625,-1.578125 -0.765625,-3.09375 2.53125,-3.03125 3.125,-6.140625 3.125,-6.171875 0,-0.21875 -0.203125,-0.21875 -0.265625,-0.21875 -0.234375,0 -0.25,0.0625 -0.34375,0.515625 -0.328125,1.09375 -0.96875,3.03125 -2.515625,5.0625 z m -1.5625,3.84375 c -2.171875,1.953125 -4.125,2.171875 -5,2.171875 -1.765625,0 -2.25,-1.5625 -2.25,-2.71875 0,-1.078125 0.546875,-3.59375 1.3125,-4.96875 1.015625,-1.734375 2.40625,-2.5 3.515625,-2.5 2.40625,0 2.40625,3.15625 2.40625,5.234375 0,0.625 -0.03125,1.265625 -0.03125,1.875 0,0.5 0.03125,0.625 0.046875,0.90625 z m 0,0"
             id="path29" />
        </g>
      </g>
      <g
         fill="#000000"
         fill-opacity="1"
         id="g20"
         transform="matrix(0.352778,0,0,0.352778,-0.851914,-0.70657)">
        <g
           id="use18"
           transform="translate(125.00906,25.473)">
          <path
             d="m 4.4375,-5.75 c 0.671875,0 2.359375,-0.046875 3.546875,-0.5 1.875,-0.71875 2.046875,-2.15625 2.046875,-2.59375 0,-1.09375 -0.9375,-2.078125 -2.578125,-2.078125 -2.59375,0 -6.34375,2.34375 -6.34375,6.765625 0,2.59375 1.5,4.40625 3.75,4.40625 3.375,0 5.5,-2.625 5.5,-2.953125 0,-0.140625 -0.15625,-0.265625 -0.25,-0.265625 -0.07813,0 -0.09375,0.015625 -0.328125,0.25 C 8.203125,-0.625 5.84375,-0.25 4.90625,-0.25 3.5,-0.25 2.75,-1.359375 2.75,-3.203125 2.75,-3.546875 2.75,-4.15625 3.125,-5.75 Z M 3.25,-6.25 c 1.0625,-3.8125 3.421875,-4.1875 4.203125,-4.1875 1.09375,0 1.84375,0.65625 1.84375,1.59375 0,2.59375 -3.96875,2.59375 -5.015625,2.59375 z m 0,0"
             id="path30" />
        </g>
        <g
           id="use19"
           transform="translate(136.25745,25.473)">
          <path
             d="m 7.015625,-3.546875 c 0,-0.125 -0.109375,-0.21875 -0.25,-0.21875 -0.21875,0 -0.25,0.078125 -0.375,0.5 C 5.75,-1.015625 4.734375,-0.25 3.921875,-0.25 c -0.296875,0 -0.65625,-0.078125 -0.65625,-0.8125 0,-0.671875 0.296875,-1.421875 0.578125,-2.15625 l 1.734375,-4.609375 c 0.078125,-0.203125 0.25,-0.640625 0.25,-1.125 0,-1.03125 -0.75,-1.96875 -1.96875,-1.96875 -2.265625,0 -3.1875,3.59375 -3.1875,3.78125 0,0.109375 0.09375,0.234375 0.265625,0.234375 0.234375,0 0.25,-0.109375 0.34375,-0.453125 0.609375,-2.078125 1.546875,-3.078125 2.515625,-3.078125 0.21875,0 0.640625,0.03125 0.640625,0.828125 0,0.640625 -0.328125,1.453125 -0.515625,2 L 2.1875,-3 c -0.15625,0.390625 -0.296875,0.796875 -0.296875,1.234375 0,1.125 0.765625,2.015625 1.953125,2.015625 2.28125,0 3.171875,-3.625 3.171875,-3.796875 z M 6.8125,-15.46875 c 0,-0.359375 -0.296875,-0.8125 -0.84375,-0.8125 -0.5625,0 -1.203125,0.546875 -1.203125,1.1875 0,0.625 0.515625,0.8125 0.8125,0.8125 0.671875,0 1.234375,-0.640625 1.234375,-1.1875 z m 0,0"
             id="path31" />
        </g>
        <g
           id="use20"
           transform="translate(144.53633,25.473)">
          <path
             d="m 10.65625,-16.96875 c 0,-0.234375 -0.171875,-0.234375 -0.25,-0.234375 -0.21875,0 -0.25,0.04687 -0.34375,0.46875 l -1.34375,5.328125 c -0.0625,0.328125 -0.09375,0.359375 -0.125,0.375 -0.015625,0.04687 -0.1875,0.07813 -0.25,0.07813 -4.0625,0.34375 -7.171875,3.6875 -7.171875,6.796875 0,2.671875 2.046875,4.3125 4.625,4.453125 C 5.59375,1.0625 5.421875,1.859375 5.234375,2.625 4.875,3.9375 4.6875,4.765625 4.6875,4.859375 c 0,0.046875 0,0.203125 0.25,0.203125 0.0625,0 0.171875,0 0.21875,-0.109375 C 5.203125,4.90625 5.359375,4.3125 5.453125,3.984375 L 6.375,0.296875 c 4.234375,-0.21875 7.453125,-3.6875 7.453125,-6.8125 0,-2.5 -1.890625,-4.28125 -4.640625,-4.46875 z m -1.609375,6.484375 c 1.640625,0.09375 3.265625,1.015625 3.265625,3.453125 0,2.796875 -1.953125,6.515625 -5.8125,6.8125 z m -3.125,10.28125 c -1.21875,-0.0625 -3.25,-0.71875 -3.25,-3.4375 0,-3.125 2.265625,-6.59375 5.828125,-6.8125 z m 0,0"
             id="path32" />
        </g>
      </g>
      <g
         fill="#000000"
         fill-opacity="1"
         id="g21"
         transform="matrix(0.352778,0,0,0.352778,-0.851914,-0.70657)">
        <g
           id="use21"
           transform="translate(158.90045,25.473)">
          <path
             d="m 6.765625,-5.78125 c 0.125,-0.296875 0.125,-0.34375 0.125,-0.40625 0,-0.078125 0,-0.125 -0.125,-0.421875 l -4.34375,-11.40625 c -0.140625,-0.421875 -0.296875,-0.5625 -0.5625,-0.5625 -0.265625,0 -0.5,0.21875 -0.5,0.484375 0,0.07813 0,0.125 0.125,0.40625 L 5.875,-6.1875 1.484375,5.25 c -0.125,0.28125 -0.125,0.328125 -0.125,0.453125 0,0.265625 0.234375,0.484375 0.5,0.484375 C 2.1875,6.1875 2.28125,5.953125 2.375,5.703125 Z m 0,0"
             id="path33" />
        </g>
      </g>
    </g>
  </g>
  <g
     inkscape:groupmode="layer"
     id="layer2"
     inkscape:label="Capa 2">
    <path
       style="fill:none;fill-opacity:1;stroke:#000000;stroke-width:0.607;stroke-miterlimit:3.9;stroke-dasharray:none;stroke-opacity:1"
       d="M 63.783783,196.92285 139.70191,165.84967"
       id="path3"
       inkscape:path-effect="#path-effect4-8"
       inkscape:original-d="M 63.783783,196.92285 139.70191,165.84967"
       transform="translate(-21.493653,-5.5703484)" />
    <path
       style="fill:none;fill-opacity:1;stroke:#000000;stroke-width:0.357;stroke-miterlimit:3.9;stroke-dasharray:none;stroke-dashoffset:0;stroke-opacity:1;marker-end:url(#marker202)"
       d="m 121.80013,196.23845 c 1.26594,-2.09203 2.03039,-4.48523 2.21162,-6.92374 0.32751,-4.40677 -1.32373,-8.92347 -4.41626,-12.07992"
       id="path201"
       inkscape:path-effect="#path-effect201-1"
       inkscape:original-d="m 121.80013,196.23845 c 0.71124,-2.10951 1.35158,-4.51663 2.21162,-6.92374 0.86004,-2.40711 -2.87094,-8.05328 -4.41626,-12.07992"
       transform="translate(-24.030512,-5.2196314)" />
    <path
       style="fill:none;fill-opacity:1;stroke:#000000;stroke-width:0.357;stroke-miterlimit:3.9;stroke-dasharray:none;stroke-dashoffset:0;stroke-opacity:1;marker-end:url(#marker206)"
       d="m 90.131817,143.07761 c 0.181825,-0.64839 0.18896,-1.34488 0.02046,-1.99686 -0.168503,-0.65197 -0.512219,-1.25779 -0.985441,-1.73688 -0.473221,-0.47909 -1.074754,-0.83025 -1.724603,-1.00677 -0.64985,-0.17653 -1.346378,-0.17798 -1.996957,-0.004 -0.787118,0.2103 -1.483721,0.6632 -2.167801,1.10571 -0.68408,0.44251 -1.386736,0.8885 -2.178133,1.08208 -0.975913,0.23871 -2.046805,0.0595 -2.891842,-0.48391 -0.845036,-0.54341 -1.452387,-1.44344 -1.640092,-2.43043"
       id="path207"
       inkscape:path-effect="#path-effect208-7"
       inkscape:original-d="m 90.131817,143.07761 c -1.464146,-1.58156 -3.075345,-3.16312 -4.686544,-4.74467 -1.611198,-1.58156 -2.89729,1.36243 -4.345934,2.18779 -1.448647,0.82536 -3.02129,-1.8468 -4.531934,-2.91434"
       transform="rotate(21.575127,20.381158,167.55081)" />
    <g
       inkscape:label=""
       transform="matrix(2.5597296,0,0,2.5597296,89.637129,178.31218)"
       id="g217">
      <g
         fill="#000000"
         fill-opacity="1"
         id="g216"
         transform="matrix(0.352778,0,0,0.352778,-0.873963,-0.660444)">
        <g
           id="g215"
           transform="translate(1.993,10.294)">
          <path
             d="m 5.296875,-6.015625 c 0,-1.21875 -0.390625,-2.40625 -1.359375,-2.40625 -1.671875,0 -3.453125,3.515625 -3.453125,6.140625 0,0.546875 0.109375,2.40625 1.375,2.40625 1.625,0 3.4375,-3.421875 3.4375,-6.140625 z m -3.625,1.6875 c 0.1875,-0.703125 0.4375,-1.703125 0.90625,-2.5625 0.390625,-0.71875 0.8125,-1.28125 1.34375,-1.28125 0.390625,0 0.65625,0.328125 0.65625,1.484375 0,0.421875 -0.03125,1.015625 -0.375,2.359375 z m 2.4375,0.359375 C 3.8125,-2.796875 3.5625,-2.046875 3.125,-1.296875 2.78125,-0.6875 2.359375,-0.125 1.859375,-0.125 1.5,-0.125 1.1875,-0.40625 1.1875,-1.59375 c 0,-0.765625 0.203125,-1.578125 0.390625,-2.375 z m 0,0"
             id="path215" />
        </g>
      </g>
    </g>
    <g
       inkscape:label=""
       transform="matrix(2.1766227,0,0,2.1766227,134.60637,140.82085)"
       id="g223">
      <g
         fill="#000000"
         fill-opacity="1"
         id="g222"
         transform="matrix(0.352778,0,0,0.352778,-1.20469,-0.702116)">
        <g
           id="g221"
           transform="translate(1.993,10.959)">
          <path
             d="m 1.90625,-8.53125 c 0,-0.21875 0,-0.4375 -0.25,-0.4375 -0.234375,0 -0.234375,0.21875 -0.234375,0.4375 V 2.5625 c 0,0.203125 0,0.421875 0.234375,0.421875 0.25,0 0.25,-0.21875 0.25,-0.421875 z m 0,0"
             id="path220" />
        </g>
      </g>
      <g
         fill="#000000"
         fill-opacity="1"
         id="g5"
         transform="matrix(0.352778,0,0,0.352778,-1.20469,-0.702116)">
        <g
           id="use4"
           transform="translate(5.3130002,10.959)">
          <path
             d="m 5.53125,-3.03125 c 0,-1.15625 -0.65625,-2.234375 -1.921875,-2.234375 -1.5625,0 -3.125,1.703125 -3.125,3.40625 0,1.03125 0.640625,1.984375 1.859375,1.984375 0.734375,0 1.625,-0.296875 2.46875,-1.015625 C 4.984375,-0.21875 5.359375,0.125 5.875,0.125 c 0.640625,0 0.96875,-0.671875 0.96875,-0.828125 0,-0.109375 -0.09375,-0.109375 -0.125,-0.109375 -0.09375,0 -0.109375,0.03125 -0.140625,0.125 C 6.46875,-0.375 6.1875,-0.125 5.90625,-0.125 c -0.375,0 -0.375,-0.765625 -0.375,-1.484375 1.21875,-1.46875 1.515625,-2.96875 1.515625,-2.984375 0,-0.109375 -0.109375,-0.109375 -0.140625,-0.109375 -0.109375,0 -0.109375,0.046875 -0.171875,0.25 -0.140625,0.53125 -0.453125,1.46875 -1.203125,2.4375 z m -0.75,1.859375 c -1.046875,0.9375 -2,1.046875 -2.421875,1.046875 -0.84375,0 -1.078125,-0.75 -1.078125,-1.3125 0,-0.515625 0.265625,-1.734375 0.625,-2.390625 0.5,-0.828125 1.171875,-1.203125 1.703125,-1.203125 1.15625,0 1.15625,1.515625 1.15625,2.515625 0,0.296875 -0.015625,0.609375 -0.015625,0.90625 0,0.25 0.015625,0.3125 0.03125,0.4375 z m 0,0"
             id="path13" />
        </g>
      </g>
      <g
         fill="#000000"
         fill-opacity="1"
         id="g6"
         transform="matrix(0.352778,0,0,0.352778,-1.20469,-0.702116)">
        <g
           id="use5"
           transform="translate(12.835,10.959)">
          <path
             d="m 3.265625,-2.78125 c 0.0625,-0.140625 0.0625,-0.171875 0.0625,-0.203125 0,-0.046875 0,-0.0625 -0.0625,-0.203125 l -2.09375,-5.5 C 1.09375,-8.890625 1.03125,-8.96875 0.890625,-8.96875 c -0.125,0 -0.234375,0.109375 -0.234375,0.25 0,0.03125 0,0.046875 0.0625,0.1875 L 2.828125,-2.984375 0.71875,2.53125 C 0.65625,2.671875 0.65625,2.6875 0.65625,2.75 c 0,0.125 0.109375,0.234375 0.234375,0.234375 0.15625,0 0.203125,-0.109375 0.25,-0.234375 z m 0,0"
             id="path222" />
        </g>
      </g>
    </g>
    <g
       inkscape:label=""
       transform="matrix(1.8912688,0,0,1.8912688,80.532741,150.4425)"
       id="g230">
      <g
         fill="#000000"
         fill-opacity="1"
         id="g225"
         transform="matrix(0.352778,0,0,0.352778,-1.20469,-0.702116)">
        <g
           id="g224"
           transform="translate(1.993,10.959)">
          <path
             d="m 1.90625,-8.53125 c 0,-0.21875 0,-0.4375 -0.25,-0.4375 -0.234375,0 -0.234375,0.21875 -0.234375,0.4375 V 2.5625 c 0,0.203125 0,0.421875 0.234375,0.421875 0.25,0 0.25,-0.21875 0.25,-0.421875 z m 0,0"
             id="path223" />
        </g>
      </g>
      <g
         fill="#000000"
         fill-opacity="1"
         id="g227"
         transform="matrix(0.352778,0,0,0.352778,-1.20469,-0.702116)">
        <g
           id="g226"
           transform="translate(5.3130002,10.959)">
          <path
             d="m 5.53125,-3.03125 c 0,-1.15625 -0.65625,-2.234375 -1.921875,-2.234375 -1.5625,0 -3.125,1.703125 -3.125,3.40625 0,1.03125 0.640625,1.984375 1.859375,1.984375 0.734375,0 1.625,-0.296875 2.46875,-1.015625 C 4.984375,-0.21875 5.359375,0.125 5.875,0.125 c 0.640625,0 0.96875,-0.671875 0.96875,-0.828125 0,-0.109375 -0.09375,-0.109375 -0.125,-0.109375 -0.09375,0 -0.109375,0.03125 -0.140625,0.125 C 6.46875,-0.375 6.1875,-0.125 5.90625,-0.125 c -0.375,0 -0.375,-0.765625 -0.375,-1.484375 1.21875,-1.46875 1.515625,-2.96875 1.515625,-2.984375 0,-0.109375 -0.109375,-0.109375 -0.140625,-0.109375 -0.109375,0 -0.109375,0.046875 -0.171875,0.25 -0.140625,0.53125 -0.453125,1.46875 -1.203125,2.4375 z m -0.75,1.859375 c -1.046875,0.9375 -2,1.046875 -2.421875,1.046875 -0.84375,0 -1.078125,-0.75 -1.078125,-1.3125 0,-0.515625 0.265625,-1.734375 0.625,-2.390625 0.5,-0.828125 1.171875,-1.203125 1.703125,-1.203125 1.15625,0 1.15625,1.515625 1.15625,2.515625 0,0.296875 -0.015625,0.609375 -0.015625,0.90625 0,0.25 0.015625,0.3125 0.03125,0.4375 z m 0,0"
             id="path225" />
        </g>
      </g>
      <g
         fill="#000000"
         fill-opacity="1"
         id="g229"
         transform="matrix(0.352778,0,0,0.352778,-1.20469,-0.702116)">
        <g
           id="g228"
           transform="translate(12.835,10.959)">
          <path
             d="m 1.90625,-8.53125 c 0,-0.21875 0,-0.4375 -0.25,-0.4375 -0.234375,0 -0.234375,0.21875 -0.234375,0.4375 V 2.5625 c 0,0.203125 0,0.421875 0.234375,0.421875 0.25,0 0.25,-0.21875 0.25,-0.421875 z m 0,0"
             id="path227" />
        </g>
      </g>
    </g>
    <circle
       style="display:inline;opacity:0.819121;fill:url(#pattern12);stroke:#5d00ce;stroke-width:0.464093;stroke-dasharray:none"
       id="path4"
       cx="117.84301"
       cy="160.00832"
       r="17.731123" />
  </g>
  <g
     inkscape:label="Capa 1"
     inkscape:groupmode="layer"
     id="layer1">
    <path
       style="fill:none;fill-opacity:1;stroke:#000000;stroke-width:1.007;stroke-miterlimit:3.9;stroke-dasharray:none;stroke-opacity:1;marker-start:url(#DartArrow)"
       d="M 39.775458,96.132546 V 204.63389"
       id="path5"
       inkscape:path-effect="#path-effect1"
       inkscape:original-d="M 39.775458,96.132546 V 204.63389"
       transform="translate(2.6187783,-6.1251283)" />
    <path
       style="fill:none;fill-opacity:1;stroke:#000000;stroke-width:1.007;stroke-miterlimit:3.9;stroke-dasharray:none;stroke-opacity:1;marker-start:url(#DartArrow)"
       d="M 39.775458,96.132546 V 204.63389"
       id="path2"
       inkscape:path-effect="#path-effect3"
       inkscape:original-d="M 39.775458,96.132546 V 204.63389"
       transform="rotate(90,42.199675,193.59419)" />
    <g
       inkscape:label=""
       transform="matrix(2.9797343,0,0,2.9797343,128.85592,194.46857)"
       id="g208">
      <g
         fill="#000000"
         fill-opacity="1"
         id="g2"
         transform="matrix(0.352778,0,0,0.352778,-0.818841,-0.660885)">
        <g
           id="use1"
           transform="translate(1.993,7.1389999)">
          <path
             d="m 5.671875,-4.875 c -0.390625,0.0625 -0.53125,0.359375 -0.53125,0.578125 0,0.296875 0.21875,0.390625 0.390625,0.390625 0.359375,0 0.609375,-0.3125 0.609375,-0.640625 0,-0.5 -0.578125,-0.71875 -1.078125,-0.71875 -0.71875,0 -1.125,0.71875 -1.234375,0.9375 -0.28125,-0.890625 -1.015625,-0.9375 -1.234375,-0.9375 -1.21875,0 -1.859375,1.5625 -1.859375,1.828125 0,0.046875 0.046875,0.109375 0.125,0.109375 0.09375,0 0.125,-0.078125 0.140625,-0.125 0.40625,-1.328125 1.21875,-1.578125 1.5625,-1.578125 0.53125,0 0.640625,0.5 0.640625,0.78125 0,0.265625 -0.078125,0.546875 -0.21875,1.125 L 2.578125,-1.5 c -0.171875,0.71875 -0.515625,1.375 -1.15625,1.375 -0.0625,0 -0.359375,0 -0.609375,-0.15625 C 1.25,-0.359375 1.34375,-0.71875 1.34375,-0.859375 1.34375,-1.09375 1.15625,-1.25 0.9375,-1.25 c -0.296875,0 -0.609375,0.265625 -0.609375,0.640625 0,0.5 0.5625,0.734375 1.078125,0.734375 0.578125,0 0.984375,-0.453125 1.234375,-0.953125 C 2.828125,-0.125 3.4375,0.125 3.875,0.125 5.09375,0.125 5.734375,-1.453125 5.734375,-1.703125 5.734375,-1.765625 5.6875,-1.8125 5.625,-1.8125 5.515625,-1.8125 5.5,-1.75 5.46875,-1.65625 5.140625,-0.609375 4.453125,-0.125 3.90625,-0.125 3.484375,-0.125 3.265625,-0.4375 3.265625,-0.921875 3.265625,-1.1875 3.3125,-1.375 3.5,-2.15625 L 3.921875,-3.796875 C 4.09375,-4.5 4.5,-5.03125 5.0625,-5.03125 c 0.015625,0 0.359375,0 0.609375,0.15625 z m 0,0"
             id="path208" />
        </g>
      </g>
    </g>
    <g
       inkscape:label=""
       transform="matrix(3.5408616,0,0,3.5408616,29.306279,94.259552)"
       id="g210">
      <g
         fill="#000000"
         fill-opacity="1"
         id="g3"
         transform="matrix(0.352778,0,0,0.352778,-0.818841,-0.69387)">
        <g
           id="use2"
           transform="translate(1.993,10.758)">
          <path
             d="m 5.671875,-4.875 c -0.390625,0.0625 -0.53125,0.359375 -0.53125,0.578125 0,0.296875 0.21875,0.390625 0.390625,0.390625 0.359375,0 0.609375,-0.3125 0.609375,-0.640625 0,-0.5 -0.578125,-0.71875 -1.078125,-0.71875 -0.71875,0 -1.125,0.71875 -1.234375,0.9375 -0.28125,-0.890625 -1.015625,-0.9375 -1.234375,-0.9375 -1.21875,0 -1.859375,1.5625 -1.859375,1.828125 0,0.046875 0.046875,0.109375 0.125,0.109375 0.09375,0 0.125,-0.078125 0.140625,-0.125 0.40625,-1.328125 1.21875,-1.578125 1.5625,-1.578125 0.53125,0 0.640625,0.5 0.640625,0.78125 0,0.265625 -0.078125,0.546875 -0.21875,1.125 L 2.578125,-1.5 c -0.171875,0.71875 -0.515625,1.375 -1.15625,1.375 -0.0625,0 -0.359375,0 -0.609375,-0.15625 C 1.25,-0.359375 1.34375,-0.71875 1.34375,-0.859375 1.34375,-1.09375 1.15625,-1.25 0.9375,-1.25 c -0.296875,0 -0.609375,0.265625 -0.609375,0.640625 0,0.5 0.5625,0.734375 1.078125,0.734375 0.578125,0 0.984375,-0.453125 1.234375,-0.953125 C 2.828125,-0.125 3.4375,0.125 3.875,0.125 5.09375,0.125 5.734375,-1.453125 5.734375,-1.703125 5.734375,-1.765625 5.6875,-1.8125 5.625,-1.8125 5.515625,-1.8125 5.5,-1.75 5.46875,-1.65625 5.140625,-0.609375 4.453125,-0.125 3.90625,-0.125 3.484375,-0.125 3.265625,-0.4375 3.265625,-0.921875 3.265625,-1.1875 3.3125,-1.375 3.5,-2.15625 L 3.921875,-3.796875 C 4.09375,-4.5 4.5,-5.03125 5.0625,-5.03125 c 0.015625,0 0.359375,0 0.609375,0.15625 z m 0,0"
             id="path209" />
        </g>
      </g>
      <g
         fill="#000000"
         fill-opacity="1"
         id="g4"
         transform="matrix(0.352778,0,0,0.352778,-0.818841,-0.69387)">
        <g
           id="use3"
           transform="translate(8.6450005,6.4200001)">
          <path
             d="M 2.109375,-3.78125 C 2.15625,-3.875 2.1875,-3.9375 2.1875,-4.015625 c 0,-0.265625 -0.25,-0.4375 -0.46875,-0.4375 -0.3125,0 -0.40625,0.28125 -0.4375,0.390625 L 0.265625,-0.625 c -0.03125,0.09375 -0.03125,0.109375 -0.03125,0.125 0,0.0625 0.046875,0.078125 0.125,0.109375 0.15625,0.0625 0.171875,0.0625 0.1875,0.0625 0.015625,0 0.0625,0 0.125,-0.140625 z m 0,0"
             id="path210" />
        </g>
      </g>
    </g>
    <circle
       style="fill:#7c00f5;fill-opacity:1;stroke:#5d00ce;stroke-width:0.587999;stroke-dasharray:none"
       id="path14"
       cx="42.568806"
       cy="191.78275"
       r="2.7665265" />
  </g>
</svg>
